<svg xmlns="http://www.w3.org/2000/svg" viewBox="0 0 22 18">
  <defs>
    <style>
      .cls-1 {
        fill: #707070;
      }
    </style>
  </defs>
  <g id="ic_child_care_24px" transform="translate(-1 -3)">
    <circle id="Ellipse_24" data-name="Ellipse 24" class="cls-1" cx="1.25" cy="1.25" r="1.25" transform="translate(13.25 9.25)"/>
    <circle id="Ellipse_25" data-name="Ellipse 25" class="cls-1" cx="1.25" cy="1.25" r="1.25" transform="translate(8.25 9.25)"/>
    <path id="Path_104" data-name="Path 104" class="cls-1" d="M22.94,12.66a3.66,3.66,0,0,0,0-1.32,4.008,4.008,0,0,0-2.81-3.17,9.114,9.114,0,0,0-2.19-2.91A8.991,8.991,0,0,0,3.87,8.17a3.994,3.994,0,0,0-2.81,3.17,3.66,3.66,0,0,0,0,1.32,4.008,4.008,0,0,0,2.81,3.17,8.977,8.977,0,0,0,2.17,2.89,8.943,8.943,0,0,0,11.93,0,9.086,9.086,0,0,0,2.17-2.89,4,4,0,0,0,2.8-3.17ZM19,14a2.851,2.851,0,0,1-.29-.03,7.168,7.168,0,0,1-.86,1.86,6.983,6.983,0,0,1-11.7,0,7.168,7.168,0,0,1-.86-1.86A2.85,2.85,0,0,1,5,14a2,2,0,0,1,0-4,2.851,2.851,0,0,1,.29.03,7.168,7.168,0,0,1,.86-1.86,6.983,6.983,0,0,1,11.7,0,7.168,7.168,0,0,1,.86,1.86A2.85,2.85,0,0,1,19,10a2,2,0,0,1,0,4ZM7.5,14a4.875,4.875,0,0,0,9,0Z"/>
  </g>
</svg>
