<svg xmlns="http://www.w3.org/2000/svg" viewBox="0 0 81.919 10.566">
  <defs>
    <style>
      .cls-1 {
        fill: #097db5;
      }

      .cls-2 {
        fill: #fefefe;
      }
    </style>
  </defs>
  <g id="magazineluiza" transform="translate(-27.317 -360.073)">
    <path id="Path_657" data-name="Path 657" class="cls-1" d="M27.317,362.373H29.1c.468,0,.468,0,.468.478v.37a2.181,2.181,0,0,1,1.859-1,1.883,1.883,0,0,1,1.831.955.606.606,0,0,1,.061-.1,2.6,2.6,0,0,1,2.842-.716,1.743,1.743,0,0,1,1.236,1.555,3.768,3.768,0,0,1,.033.511c0,1.283,0,2.566,0,3.849,0,.155-.033.211-.2.206-.646-.009-1.3-.009-1.943,0-.15,0-.2-.033-.192-.192.009-1.058,0-2.117,0-3.175a2.409,2.409,0,0,0-.066-.548.583.583,0,0,0-.543-.478.714.714,0,0,0-.8.333,1.246,1.246,0,0,0-.15.609c0,1.077,0,2.159,0,3.236,0,.173-.052.215-.215.211-.646-.009-1.3-.009-1.943,0-.15,0-.178-.042-.178-.183,0-1.063,0-2.131,0-3.194a1.961,1.961,0,0,0-.066-.524.574.574,0,0,0-.576-.487.7.7,0,0,0-.777.365,1.382,1.382,0,0,0-.136.613c0,1.058,0,2.117,0,3.175,0,.178-.028.243-.229.239-.7-.014-1.4-.009-2.107-.009q-.014-3.049-.009-6.1Zm21.713.7c0-.192,0-.384,0-.571,0-.1.028-.131.126-.126.7,0,1.391,0,2.089,0,.173,0,.117.112.117.2,0,1.719,0,3.442,0,5.16a4.524,4.524,0,0,1-.08.834,2.219,2.219,0,0,1-1.775,1.892,5.139,5.139,0,0,1-3.367-.225,1.971,1.971,0,0,1-1.129-1.508c-.019-.094,0-.136.108-.136.688,0,1.377,0,2.07,0a.175.175,0,0,1,.164.1,1.52,1.52,0,0,0,.206.276.756.756,0,0,0,1.3-.253,3.26,3.26,0,0,0,.159-1.391c-.042-.023-.061.014-.08.037a2,2,0,0,1-1.985.74,2.313,2.313,0,0,1-2.07-1.9,3.615,3.615,0,0,1,.342-2.847,2.549,2.549,0,0,1,2.81-1.039,1.588,1.588,0,0,1,.988.758Zm21.76.075c.173-.164.295-.328.454-.45a2.59,2.59,0,0,1,2.847-.1,1.969,1.969,0,0,1,.815,1.742c.014,1.325,0,2.65,0,3.971,0,.136-.037.173-.173.173-.66,0-1.325-.009-1.985,0-.145,0-.183-.037-.183-.183q.007-1.524,0-3.053a3.754,3.754,0,0,0-.037-.51.718.718,0,0,0-1-.628.881.881,0,0,0-.637.838,4.674,4.674,0,0,0-.028.51q-.007,1.412,0,2.824c0,.15-.033.2-.187.2q-.983-.014-1.967,0c-.145,0-.183-.042-.183-.183q.007-2.88,0-5.755c0-.122.019-.178.164-.178.641.009,1.283,0,1.925,0,.122,0,.169.028.164.159C70.781,362.724,70.791,362.921,70.791,363.15Zm19.527,4.542a2.4,2.4,0,0,1-2.421.913,1.862,1.862,0,0,1-1.672-1.868c-.023-1.4-.009-2.81-.014-4.219,0-.122.042-.145.155-.145.674,0,1.353.009,2.028,0,.159,0,.155.075.155.187v3.114a2.116,2.116,0,0,0,.037.487.74.74,0,0,0,1.082.557.856.856,0,0,0,.524-.679,3.079,3.079,0,0,0,.047-.548c0-.969,0-1.938,0-2.908,0-.178.052-.211.215-.206.646.009,1.3.009,1.943,0,.145,0,.183.037.178.183q-.007,2.877,0,5.755c0,.145-.037.183-.178.183-.637-.009-1.269,0-1.906,0-.131,0-.183-.028-.173-.168.014-.2,0-.393,0-.637Zm-45.782.791c-.777,0-1.512,0-2.248,0-.1,0-.15-.037-.164-.131-.019-.131-.042-.267-.066-.435a2.046,2.046,0,0,1-1.077.623A3.188,3.188,0,0,1,38.9,368.4a1.605,1.605,0,0,1-.955-1.564A1.575,1.575,0,0,1,38.8,365.3a5.283,5.283,0,0,1,1.728-.464,6.745,6.745,0,0,0,1.147-.2.446.446,0,0,0,.351-.45.5.5,0,0,0-.332-.492.85.85,0,0,0-.117-.042,1.351,1.351,0,0,0-.805.037.553.553,0,0,0-.365.412c-.024.094-.056.131-.159.131q-.941-.007-1.882,0c-.113,0-.155-.023-.141-.15a1.769,1.769,0,0,1,1.166-1.545,5.537,5.537,0,0,1,2.294-.3,5.037,5.037,0,0,1,1.292.178,1.551,1.551,0,0,1,1.255,1.541c.07,1.058.014,2.117.028,3.175,0,.2,0,.4.024.595A1.871,1.871,0,0,0,44.535,368.484Zm13.893,0H56.162c-.084,0-.126-.028-.136-.112q-.031-.223-.07-.445c-.079.065-.14.126-.206.178a2.838,2.838,0,0,1-2.131.515,2.214,2.214,0,0,1-1.25-.5,1.817,1.817,0,0,1,.248-2.782,5.515,5.515,0,0,1,1.8-.506,6.142,6.142,0,0,0,1.166-.206.484.484,0,0,0,.272-.716.566.566,0,0,0-.356-.258,1.352,1.352,0,0,0-.805.019.538.538,0,0,0-.379.393c-.033.122-.08.159-.206.155q-.911-.007-1.821,0c-.122,0-.173-.009-.159-.164a1.8,1.8,0,0,1,1.466-1.634,6.384,6.384,0,0,1,3.32,0,1.5,1.5,0,0,1,1.213,1.484c.084,1.068.014,2.14.037,3.212,0,.192,0,.384.023.571A1.78,1.78,0,0,0,58.429,368.484Zm50.807,0h-2.262c-.1,0-.131-.047-.145-.131a1.907,1.907,0,0,1-.042-.454,2.8,2.8,0,0,1-2.529.7,1.808,1.808,0,0,1-1.475-2.538,1.782,1.782,0,0,1,1.124-.946,7.792,7.792,0,0,1,1.6-.328c.262-.042.529-.07.787-.131.318-.08.44-.239.435-.51a.517.517,0,0,0-.45-.51,1.324,1.324,0,0,0-.787.033.537.537,0,0,0-.37.4c-.028.108-.061.145-.173.14q-.932-.007-1.864,0c-.136,0-.159-.047-.145-.169a1.713,1.713,0,0,1,1.044-1.475,5.23,5.23,0,0,1,2.426-.346,5.75,5.75,0,0,1,1.1.131,1.643,1.643,0,0,1,1.452,1.77c.019,1.025,0,2.046.009,3.072a2.4,2.4,0,0,0,.272,1.292Zm-27.117-1.775a2.687,2.687,0,0,1-1.583,1.63,4.037,4.037,0,0,1-3.278-.066,2.872,2.872,0,0,1-1.7-2.838,3.131,3.131,0,0,1,3.531-3.2,4.443,4.443,0,0,1,1.26.239,2.782,2.782,0,0,1,1.765,2.14,5.775,5.775,0,0,1,.136,1.133c0,.164-.042.206-.2.2-1.349,0-2.7,0-4.05-.009-.178,0-.239.023-.192.225a1.1,1.1,0,0,0,.759.908,1.249,1.249,0,0,0,1.321-.3.2.2,0,0,1,.159-.07c.684.009,1.367,0,2.074,0Zm17.359.084c.951,0,1.878,0,2.805,0,.164,0,.206.047.2.206q-.014.665,0,1.33c0,.131-.037.159-.164.159q-2.9-.007-5.792,0c-.113,0-.15-.028-.15-.145,0-.511,0-1.026,0-1.536a.286.286,0,0,1,.131-.234q1.292-1.18,2.585-2.365c.033-.033.07-.066.1-.1-.052-.07-.117-.037-.173-.037-.731,0-1.461-.009-2.191,0-.168,0-.206-.052-.2-.206.009-.445.009-.885,0-1.33,0-.126.037-.159.159-.159q2.641.007,5.282,0c.145,0,.164.056.164.178,0,.473-.009.941,0,1.414a.406.406,0,0,1-.14.337q-1.235,1.153-2.463,2.313A.424.424,0,0,0,99.477,366.793Zm-37.826,0h.562c.763,0,1.531,0,2.295,0,.14,0,.187.033.183.178-.009.45-.009.9,0,1.353,0,.122-.033.164-.159.164q-2.887-.007-5.774,0c-.141,0-.173-.042-.169-.173,0-.478.009-.955,0-1.433a.4.4,0,0,1,.155-.333c.857-.773,1.7-1.555,2.557-2.332.037-.037.08-.075.117-.113-.047-.065-.108-.037-.155-.037-.735,0-1.475,0-2.21,0-.15,0-.2-.033-.2-.192q.014-.665,0-1.33c0-.122.014-.178.164-.178,1.756,0,3.507,0,5.263,0,.141,0,.169.047.164.173q-.007.716,0,1.433a.393.393,0,0,1-.136.318c-.815.759-1.62,1.522-2.43,2.285C61.814,366.639,61.753,366.7,61.65,366.793Zm23.6-2.491c0,1.325,0,2.646,0,3.971,0,.164-.033.22-.211.215q-.972-.014-1.943,0c-.145,0-.183-.042-.183-.183q.007-4.025,0-8.045c0-.141.037-.183.183-.183q.983.014,1.967,0c.155,0,.192.037.192.192C85.246,361.614,85.251,362.958,85.251,364.3Zm-19.995,1.119c0-.955,0-1.911,0-2.866,0-.14.033-.187.178-.183.66.009,1.325,0,1.985,0,.126,0,.173.028.173.164q-.007,2.887,0,5.774c0,.15-.052.178-.187.173-.656,0-1.311-.009-1.967,0-.164,0-.187-.056-.187-.2C65.256,367.332,65.256,366.377,65.256,365.421Zm30.6,0c0,.951,0,1.9,0,2.847,0,.159-.024.225-.206.22-.642-.014-1.283-.009-1.925,0-.155,0-.211-.028-.211-.2q.007-2.866,0-5.732c0-.136.028-.187.178-.187.66.009,1.325.009,1.985,0,.155,0,.173.052.173.187v2.861Zm-1.166-3.709c-.333,0-.67,0-1,0-.117,0-.169-.019-.169-.155.009-.45,0-.9,0-1.349,0-.108.033-.14.14-.14q1.033.007,2.065,0c.089,0,.136.019.136.122q-.007.7,0,1.391c0,.117-.052.131-.145.131Zm-28.255-1.639c.328,0,.656,0,.983,0,.122,0,.178.019.178.164-.009.445,0,.885,0,1.33,0,.113-.028.155-.145.15-.684,0-1.363,0-2.046,0-.122,0-.15-.042-.145-.155q.007-.665,0-1.33c0-.127.033-.164.159-.159C65.752,360.088,66.094,360.078,66.431,360.078Z" transform="translate(0 0)"/>
    <path id="Path_658" data-name="Path 658" class="cls-2" d="M124.549,386.415a2.939,2.939,0,0,1-.131.848.78.78,0,0,1-.744.567.851.851,0,0,1-.866-.393,1.956,1.956,0,0,1-.169-1.653.9.9,0,0,1,1.054-.642.972.972,0,0,1,.829.909A3.537,3.537,0,0,1,124.549,386.415Zm-7.071.909a1.7,1.7,0,0,1-.033.407.938.938,0,0,1-1.274.684.6.6,0,0,1-.4-.515.539.539,0,0,1,.361-.515c.258-.112.538-.136.8-.229.07-.023.145-.042.215-.065.337-.117.333-.117.333.234Zm13.894.009a1.576,1.576,0,0,1-.042.445.938.938,0,0,1-1.3.613.551.551,0,0,1-.365-.5.522.522,0,0,1,.361-.515c.253-.113.529-.136.787-.225.07-.023.145-.037.215-.061C131.372,386.977,131.372,386.977,131.372,387.333Zm50.807.009a1.557,1.557,0,0,1-.056.487.935.935,0,0,1-1.325.543.54.54,0,0,1-.323-.506.5.5,0,0,1,.346-.482c.337-.15.712-.178,1.054-.309C182.174,386.963,182.179,386.972,182.179,387.342Zm-27.824-1.386h-.96c-.079,0-.14.009-.122-.117a1.074,1.074,0,0,1,1-.9,1.016,1.016,0,0,1,1.161.716c.08.281.066.3-.22.3S154.64,385.956,154.355,385.956Z" transform="translate(-75.458 -21.209)"/>
  </g>
</svg>
