<svg xmlns="http://www.w3.org/2000/svg" xmlns:xlink="http://www.w3.org/1999/xlink" viewBox="0 0 89.992 90">
  <defs>
    <style>
      .cls-1 {
        fill: none;
      }

      .cls-2 {
        opacity: 0.9;
      }

      .cls-3 {
        clip-path: url(#clip-path);
      }

      .cls-4 {
        fill: #f699b7;
      }
    </style>
    <clipPath id="clip-path">
      <path id="Path_681" data-name="Path 681" class="cls-1" d="M0-46.957H89.992v90H0Z" transform="translate(0 46.957)"/>
    </clipPath>
  </defs>
  <g id="Group_284" data-name="Group 284" class="cls-2" transform="translate(0 46.957)">
    <g id="Group_283" data-name="Group 283" class="cls-3" transform="translate(0 -46.957)">
      <g id="Group_271" data-name="Group 271" transform="translate(27.862 19.597)">
        <path id="Path_669" data-name="Path 669" class="cls-4" d="M3.039,1.247c2.066,0,3.747,2.024,3.747,4.51s-1.681,4.51-3.747,4.51S-.708,8.242-.708,5.757s1.683-4.51,3.747-4.51m0,11.628c3.5,0,6.354-3.193,6.354-7.118S6.542-1.36,3.039-1.36-3.317,1.833-3.315,5.757s2.85,7.118,6.354,7.118" transform="translate(3.315 1.36)"/>
      </g>
      <g id="Group_272" data-name="Group 272" transform="translate(17.647 21.713)">
        <path id="Path_670" data-name="Path 670" class="cls-4" d="M1.495,1.8A2.184,2.184,0,0,1,3.04.665,1.31,1.31,0,0,1,3.285.647C4.552.647,5.767,2,6.01,3.743,6.271,5.6,5.349,7.329,4,7.517a2.147,2.147,0,0,1-1.8-.663A4.067,4.067,0,0,1,1.023,4.438,4.085,4.085,0,0,1,1.495,1.8M.414,8.751a4.837,4.837,0,0,0,3.322,1.393,4.858,4.858,0,0,0,.623-.042C7.157,9.709,9.058,6.7,8.6,3.38S5.468-2.3,2.677-1.919A4.743,4.743,0,0,0-.746.461,6.68,6.68,0,0,0-1.56,4.8,6.689,6.689,0,0,0,.414,8.751" transform="translate(1.631 1.959)"/>
      </g>
      <g id="Group_273" data-name="Group 273" transform="translate(8.283 25.95)">
        <path id="Path_671" data-name="Path 671" class="cls-4" d="M1.632,1.37a1.671,1.671,0,0,1,.926-.263A3.455,3.455,0,0,1,5.239,2.786c.935,1.434.866,3.208-.149,3.872s-2.672.017-3.609-1.414-.866-3.21.151-3.874M4.176,9.521a4.252,4.252,0,0,0,2.34-.678c2.239-1.464,2.647-4.82.907-7.483v0C5.68-1.3,2.445-2.276.206-.815S-2.441,4.005-.7,6.669A6.007,6.007,0,0,0,4.176,9.521" transform="translate(1.781 1.494)"/>
      </g>
      <g id="Group_274" data-name="Group 274" transform="translate(2.193 33.055)">
        <path id="Path_672" data-name="Path 672" class="cls-4" d="M1.367,1.422a1.222,1.222,0,0,1,.947-.379,2.753,2.753,0,0,1,1.721.713A2.746,2.746,0,0,1,4.95,3.272a1.288,1.288,0,0,1-.228,1.083,1.319,1.319,0,0,1-1.043.372,2.754,2.754,0,0,1-1.625-.705c-.908-.8-1.225-1.986-.686-2.6M3.558,7.331c.071,0,.14,0,.209,0A3.835,3.835,0,0,0,6.686,6.072,3.856,3.856,0,0,0,7.514,2.8,5.306,5.306,0,0,0,5.751-.209C3.742-1.964.892-2-.6-.295S-1.671,4.228.338,5.986a5.322,5.322,0,0,0,3.22,1.345" transform="translate(1.492 1.552)"/>
      </g>
      <g id="Group_275" data-name="Group 275" transform="translate(0 41.294)">
        <path id="Path_673" data-name="Path 673" class="cls-4" d="M2.731,2.188a.912.912,0,0,1-.642.425A2.13,2.13,0,0,1,.732,2.4a2.136,2.136,0,0,1-.991-.956A.926.926,0,0,1-.309.676a1.084,1.084,0,0,1,1-.46,2.244,2.244,0,0,1,1,.249c.9.445,1.267,1.265,1.037,1.723m.123-4.059C.728-2.931-1.738-2.3-2.643-.485A3.487,3.487,0,0,0-2.62,2.551,4.736,4.736,0,0,0-.431,4.737a4.9,4.9,0,0,0,2.166.521,4.261,4.261,0,0,0,.9-.1A3.466,3.466,0,0,0,5.068,3.35c.9-1.821-.086-4.163-2.214-5.221" transform="translate(2.98 2.387)"/>
      </g>
      <g id="Group_276" data-name="Group 276" transform="translate(8.143 34.309)">
        <path id="Path_674" data-name="Path 674" class="cls-4" d="M11.673,25.387c-4.337,0-6.835-2.708-9.631-6.223A66.293,66.293,0,0,1-9.888-8.829s0-.008,0-.012a12.559,12.559,0,0,1-.234-2.419c0-6.9,5.932-11.669,11.81-13.338a12.432,12.432,0,0,1,3.4-.491,8.718,8.718,0,0,1,5.861,2.039c2.359,2.095,3.235,5.53,2.526,9.928A19.889,19.889,0,0,1,12.6-9.653c-2.083,5.426-2.246,9.6-.51,13.139a9.1,9.1,0,0,0,4.36,4.035A9.409,9.409,0,0,1,21.879,15.9c0,5.229-4.579,9.484-10.206,9.484M17.6,5.182a6.62,6.62,0,0,1-3.176-2.844c-1.393-2.842-1.2-6.354.619-11.094a23.124,23.124,0,0,0,1-3.948c.841-5.248-.356-9.614-3.373-12.3C9.779-27.579,5.4-28.367.97-27.106c-6.821,1.938-13.7,7.59-13.7,15.847a15.112,15.112,0,0,0,.284,2.917A68.893,68.893,0,0,0-.021,20.762C3.009,24.573,6.185,28,11.673,28c7.067,0,12.815-5.424,12.815-12.092A11.992,11.992,0,0,0,17.6,5.182" transform="translate(12.734 27.696)"/>
      </g>
      <g id="Group_277" data-name="Group 277" transform="translate(49.426 0.001)">
        <path id="Path_675" data-name="Path 675" class="cls-4" d="M3.039,1.248c2.066,0,3.747,2.022,3.745,4.508S5.1,10.265,3.039,10.263-.708,8.241-.708,5.754.973,1.248,3.039,1.248m0,11.624c3.507,0,6.356-3.193,6.356-7.117S6.542-1.361,3.039-1.361-3.315,1.832-3.315,5.756s2.85,7.117,6.352,7.117" transform="translate(3.315 1.361)"/>
      </g>
      <g id="Group_278" data-name="Group 278" transform="translate(62.051 2.112)">
        <path id="Path_676" data-name="Path 676" class="cls-4" d="M1.269,2.728C1.531.871,2.9-.547,4.245-.348A2.18,2.18,0,0,1,5.786.783a4.057,4.057,0,0,1,.471,2.643A4.078,4.078,0,0,1,5.079,5.839,2.141,2.141,0,0,1,3.285,6.5C1.934,6.316,1.01,4.585,1.269,2.728M2.923,9.088a4.581,4.581,0,0,0,.623.044,4.847,4.847,0,0,0,3.323-1.4A6.671,6.671,0,0,0,8.841,3.788,6.676,6.676,0,0,0,8.027-.551,4.737,4.737,0,0,0,4.6-2.934C1.811-3.328-.847-.946-1.315,2.368S.124,8.7,2.923,9.088" transform="translate(1.384 2.976)"/>
      </g>
      <g id="Group_279" data-name="Group 279" transform="translate(71.422 6.352)">
        <path id="Path_677" data-name="Path 677" class="cls-4" d="M1.564,2.048h0A3.816,3.816,0,0,1,3.478.5a2.4,2.4,0,0,1,.767-.13,1.655,1.655,0,0,1,.926.263C6.188,1.3,6.257,3.07,5.322,4.5S2.731,6.589,1.713,5.92a1.977,1.977,0,0,1-.8-1.495,3.835,3.835,0,0,1,.65-2.377M-1.681,4.665A4.544,4.544,0,0,0,.287,8.1a4.238,4.238,0,0,0,2.34.68A6.022,6.022,0,0,0,7.507,5.93C9.244,3.267,8.837-.089,6.6-1.553a4.567,4.567,0,0,0-3.939-.424A6.389,6.389,0,0,0-.619.62,6.382,6.382,0,0,0-1.681,4.665" transform="translate(1.706 2.235)"/>
      </g>
      <g id="Group_280" data-name="Group 280" transform="translate(78.73 13.459)">
        <path id="Path_678" data-name="Path 678" class="cls-4" d="M1.7,1.581c.91-.793,2.131-.949,2.67-.333a1.31,1.31,0,0,1,.226,1.085,2.749,2.749,0,0,1-.916,1.516c-.908.793-2.131.947-2.668.335s-.222-1.805.688-2.6M-.022-.382C-2.028,1.374-2.448,4.191-.957,5.9A3.824,3.824,0,0,0,1.964,7.155,5.27,5.27,0,0,0,5.393,5.813,5.331,5.331,0,0,0,7.158,2.8a3.863,3.863,0,0,0-.83-3.27C4.837-2.176,1.989-2.139-.022-.382Z" transform="translate(1.85 1.725)"/>
      </g>
      <g id="Group_281" data-name="Group 281" transform="translate(81.61 21.693)">
        <path id="Path_679" data-name="Path 679" class="cls-4" d="M2.236,2.292c-.9.447-1.775.245-2-.215a.93.93,0,0,1,.048-.767A2.154,2.154,0,0,1,1.272.355,2.3,2.3,0,0,1,2.278.107a1.661,1.661,0,0,1,.355.036.907.907,0,0,1,.64.424c.228.458-.142,1.28-1.037,1.725M5.607-.594A3.475,3.475,0,0,0,3.175-2.409,4.729,4.729,0,0,0,.112-1.98,4.711,4.711,0,0,0-2.079.205,3.48,3.48,0,0,0-2.1,3.241a3.638,3.638,0,0,0,3.346,1.9A4.835,4.835,0,0,0,3.4,4.627c2.127-1.058,3.118-3.4,2.212-5.221" transform="translate(2.439 2.501)"/>
      </g>
      <g id="Group_282" data-name="Group 282" transform="translate(44.63 14.715)">
        <path id="Path_680" data-name="Path 680" class="cls-4" d="M16.441,9.016a.021.021,0,0,1,0,.012A66.269,66.269,0,0,1,4.531,37c-2.817,3.54-5.311,6.248-9.654,6.248-5.627,0-10.2-4.253-10.2-9.482A9.4,9.4,0,0,1-9.9,25.379a9.113,9.113,0,0,0,4.362-4.036c1.736-3.538,1.575-7.715-.5-13.1a20.42,20.42,0,0,1-.889-3.5c-.707-4.4.169-7.835,2.53-9.93A8.719,8.719,0,0,1,1.466-7.231a12.466,12.466,0,0,1,3.4.491C10.747-5.071,16.677-.3,16.677,6.6a12.381,12.381,0,0,1-.236,2.419M5.581-9.247c-4.426-1.259-8.807-.471-11.707,2.1C-9.142-4.462-10.34-.1-9.5,5.15A23.264,23.264,0,0,0-8.481,9.139c1.807,4.7,2,8.215.606,11.055a6.605,6.605,0,0,1-3.176,2.846,12,12,0,0,0-6.885,10.722c0,6.666,5.748,12.09,12.815,12.09,5.487,0,8.663-3.423,11.713-7.262A68.85,68.85,0,0,0,19,9.517,15.127,15.127,0,0,0,19.285,6.6c0-8.259-6.883-13.911-13.7-15.847" transform="translate(17.936 9.836)"/>
      </g>
    </g>
  </g>
</svg>
