<svg xmlns="http://www.w3.org/2000/svg" xmlns:xlink="http://www.w3.org/1999/xlink" viewBox="0 0 105.49 90">
  <defs>
    <style>
      .cls-1 {
        fill: none;
      }

      .cls-2 {
        clip-path: url(#clip-path);
      }

      .cls-3 {
        fill: #f699b7;
      }

      .cls-4 {
        fill: #2699fb;
      }
    </style>
    <clipPath id="clip-path">
      <path id="Path_668" data-name="Path 668" class="cls-1" d="M0-39.714H105.491v90H0Z" transform="translate(0 39.714)"/>
    </clipPath>
  </defs>
  <g id="Group_270" data-name="Group 270" transform="translate(0 39.714)">
    <g id="Group_268" data-name="Group 268" class="cls-2" transform="translate(0 -39.714)">
      <g id="Group_264" data-name="Group 264" transform="translate(4.16 12.738)">
        <path id="Path_664" data-name="Path 664" class="cls-3" d="M36.188,40.434A34.45,34.45,0,0,1,64.393,8.791,41.3,41.3,0,0,1,36.188,40.434M14.965,42.244a40.222,40.222,0,0,1-8.939-1.022A37.548,37.548,0,0,0-25.7,5.6,41.242,41.242,0,0,1-25.973.95l0-29.8,91.131,0V.95a41.643,41.643,0,0,1-.279,4.639,37.518,37.518,0,0,0-31.8,35.652,40.41,40.41,0,0,1-8.865,1ZM-25.21,8.8A34.471,34.471,0,0,1,2.917,40.416,41.293,41.293,0,0,1-25.21,8.8M66.683-31.933H-27.5a1.535,1.535,0,0,0-1.528,1.541V.947a44.239,44.239,0,0,0,44,44.379l9.249,0A44.239,44.239,0,0,0,68.21.947V-30.392a1.535,1.535,0,0,0-1.528-1.541" transform="translate(29.031 31.933)"/>
      </g>
      <g id="Group_265" data-name="Group 265" transform="translate(-0.001 0)">
        <path id="Path_665" data-name="Path 665" class="cls-4" d="M56.837,5a3.786,3.786,0,0,1-3.763,3.8H47.649V-.862h5.425a3.784,3.784,0,0,1,3.763,3.8ZM-42.538,5V2.932A3.785,3.785,0,0,1-38.778-.862h5.5l0,9.654h-5.5A3.787,3.787,0,0,1-42.538,5M34.673-.862h9.921V8.792H34.67Zm-12.98,0h9.921V8.792H21.692Zm-12.98,0h9.923V8.792H8.714Zm-12.976,0H5.656V8.792H-4.264ZM-20.3,8.792h-9.921V-.862H-20.3Zm3.058-9.654h9.921V8.792h-9.923ZM53.074-3.946H-38.778A6.859,6.859,0,0,0-45.6,2.934V5a6.862,6.862,0,0,0,6.818,6.88l91.852,0A6.858,6.858,0,0,0,59.895,5V2.932a6.858,6.858,0,0,0-6.82-6.878" transform="translate(45.596 3.946)"/>
      </g>
      <g id="Group_266" data-name="Group 266" transform="translate(4.16 21.159)">
        <path id="Path_666" data-name="Path 666" class="cls-4" d="M14.743,9.59H11.11V-4.49h3.633A7.017,7.017,0,0,1,21.72,2.551,7.017,7.017,0,0,1,14.743,9.59M-8.769-4.49H8.053V9.59H-8.772ZM14.743-7.574l-25.04,0a1.535,1.535,0,0,0-1.53,1.541V11.134a1.536,1.536,0,0,0,1.53,1.541h25.04A10.089,10.089,0,0,0,24.778,2.549,10.091,10.091,0,0,0,14.743-7.574" transform="translate(11.827 7.574)"/>
      </g>
      <g id="Group_267" data-name="Group 267" transform="translate(64.793 21.158)">
        <path id="Path_667" data-name="Path 667" class="cls-4" d="M18.616,9.59H1.794V-4.49l16.824,0Zm-30.49-7.039A7.017,7.017,0,0,1-4.9-4.49l3.63,0V9.59H-4.9a7.017,7.017,0,0,1-6.978-7.039M20.146-7.574H-4.9A10.1,10.1,0,0,0-14.934,2.551,10.1,10.1,0,0,0-4.9,12.675l25.042,0a1.529,1.529,0,0,0,1.528-1.541V-6.031a1.535,1.535,0,0,0-1.528-1.543" transform="translate(14.934 7.574)"/>
      </g>
    </g>
  </g>
</svg>
