<svg xmlns="http://www.w3.org/2000/svg" xmlns:xlink="http://www.w3.org/1999/xlink" viewBox="0 0 81.675 90">
  <defs>
    <style>
      .cls-1 {
        fill: none;
      }

      .cls-2 {
        clip-path: url(#clip-path);
      }

      .cls-3 {
        fill: #2699fb;
      }

      .cls-4 {
        fill: #f699b7;
      }
    </style>
    <clipPath id="clip-path">
      <path id="Path_688" data-name="Path 688" class="cls-1" d="M0-46.964H81.675v90H0Z" transform="translate(0 46.964)"/>
    </clipPath>
  </defs>
  <g id="Group_292" data-name="Group 292" transform="translate(0 46.964)">
    <g id="Group_291" data-name="Group 291" class="cls-2" transform="translate(0 -46.964)">
      <g id="Group_285" data-name="Group 285" transform="translate(32.098 0)">
        <path id="Path_682" data-name="Path 682" class="cls-3" d="M8.627,1.349,32.211,11.493l-14.294,12.2L-5.668,13.566Zm27.329,9.773c0-.033-.023-.057-.025-.088s.015-.069.011-.105a1.327,1.327,0,0,0-.136-.318,1.34,1.34,0,0,0-.1-.228,1.327,1.327,0,0,0-.4-.349c-.044-.025-.063-.075-.113-.1,0,0-.011,0-.015,0s-.008-.006-.011-.008L8.91-1.366a1.306,1.306,0,0,0-1.361.205L-8.956,12.947a1.256,1.256,0,0,0-.274.391c-.01.017-.023.029-.031.044a1.231,1.231,0,0,0-.1.4,1.241,1.241,0,0,0-.052.2l.023,14.905a1.3,1.3,0,0,0,1.3,1.3h0a1.307,1.307,0,0,0,1.3-1.307L-6.8,15.965,16.844,26.118l.015,11.3a1.3,1.3,0,0,0,1.3,1.3h.006a1.3,1.3,0,0,0,1.3-1.307L19.45,25.858l13.9-11.9.034,23.429-4.651,3.982a1.3,1.3,0,1,0,1.7,1.98l5.107-4.373A1.31,1.31,0,0,0,36,37.979Z" transform="translate(9.414 1.473)"/>
      </g>
      <g id="Group_286" data-name="Group 286" transform="translate(0 22.462)">
        <path id="Path_683" data-name="Path 683" class="cls-3" d="M1.3,19.846,1.195-4.172,24.871,5.91l.052,11.515.056,12.5ZM16.579-18.836,40.193-8.764,25.937,3.48,2.322-6.573ZM43.937-9.145c0-.033-.023-.056-.027-.088s.017-.069.011-.105a1.282,1.282,0,0,0-.136-.316,1.152,1.152,0,0,0-.1-.228,1.318,1.318,0,0,0-.4-.347c-.044-.027-.065-.075-.113-.1-.006,0-.011,0-.017,0s-.008-.008-.013-.01L16.857-21.552a1.306,1.306,0,0,0-1.363.209L-.969-7.185a1.282,1.282,0,0,0-.274.395c-.008.015-.021.027-.029.042a1.268,1.268,0,0,0-.1.4,1.469,1.469,0,0,0-.05.2L-1.3,20.716a1.3,1.3,0,0,0,.8,1.194L25.782,33.1a1.214,1.214,0,0,0,1.156-.09c.025-.013.054-.008.077-.023s.025-.034.042-.048a.925.925,0,0,0,.086-.05L37,24.4a1.3,1.3,0,0,0-1.7-1.978l-7.719,6.648-.061-13.648L27.478,5.64,41.343-6.305,41.375.808a1.3,1.3,0,0,0,1.3,1.3h.006A1.307,1.307,0,0,0,43.983.8Z" transform="translate(1.423 21.657)"/>
      </g>
      <g id="Group_287" data-name="Group 287" transform="translate(36.195 35.137)">
        <path id="Path_684" data-name="Path 684" class="cls-4" d="M13.869,24.255l-.057-12.583L13.764.828,27.629-11.119l.105,23.431ZM-12.41,15.034l-.109-24.018L11.156,1.1l.059,12.968.052,11.048ZM2.865-23.648,26.481-13.576,12.223-1.334-11.392-11.387Zm27.358,9.689c0-.033-.025-.056-.027-.086s.017-.071.011-.105a1.186,1.186,0,0,0-.136-.316,1.226,1.226,0,0,0-.1-.23,1.3,1.3,0,0,0-.4-.347c-.044-.025-.065-.075-.111-.1-.008,0-.013,0-.019,0a.042.042,0,0,0-.01-.008L3.141-26.364a1.306,1.306,0,0,0-1.363.209L-14.683-12a1.258,1.258,0,0,0-.276.4c-.008.012-.019.023-.027.036a1.279,1.279,0,0,0-.1.406,1.229,1.229,0,0,0-.048.2l.121,26.858a1.306,1.306,0,0,0,.793,1.194L12.068,28.289a1.288,1.288,0,0,0,.512.105,1.323,1.323,0,0,0,.648-.2c.021-.015.05-.01.073-.023s.025-.034.042-.046a.815.815,0,0,0,.088-.052L29.892,13.893a1.3,1.3,0,0,0,.452-.995Z" transform="translate(15.135 26.469)"/>
      </g>
      <g id="Group_288" data-name="Group 288" transform="translate(10.562 45.468)">
        <path id="Path_685" data-name="Path 685" class="cls-4" d="M1.068,1.98V5.974L4.493,7.469v-4A3.2,3.2,0,0,0,2.782.743C1.837.33,1.068.886,1.068,1.98M-1.166,17.01v-16c0-2.522,1.771-3.8,3.948-2.855a7.368,7.368,0,0,1,3.948,6.3v16c0,.715-.5,1.077-1.117.809a2.084,2.084,0,0,1-1.119-1.784V10.058L1.068,8.565v9.419c0,.715-.5,1.079-1.117.809A2.083,2.083,0,0,1-1.166,17.01" transform="translate(1.166 2.161)"/>
      </g>
      <g id="Group_289" data-name="Group 289" transform="translate(46.75 57.463)">
        <path id="Path_686" data-name="Path 686" class="cls-3" d="M2.713,7.2A2.925,2.925,0,0,0,1.15,4.7L-.727,3.882v8.125l1.874.818c.864.376,1.566-.132,1.566-1.131Zm-3.44-5.9,1.876.818c.86.376,1.564-.13,1.564-1.133V-1.372a2.919,2.919,0,0,0-1.564-2.5L-.727-4.686ZM-2.961,12.328V-6.955c0-.715.5-1.079,1.117-.809L1.15-6.458A7.086,7.086,0,0,1,4.946-.4l0,2.353A3.115,3.115,0,0,1,3.836,4.578,6.96,6.96,0,0,1,4.948,8.169v4.5c0,2.428-1.706,3.662-3.8,2.748L-1.844,14.11a2.079,2.079,0,0,1-1.117-1.782" transform="translate(2.961 7.853)"/>
      </g>
      <g id="Group_290" data-name="Group 290" transform="translate(42.598 24.38)">
        <path id="Path_687" data-name="Path 687" class="cls-4" d="M1.069,4.583V-.852c0-1.1.77-1.658,1.719-1.244A3.209,3.209,0,0,1,4.509.645v.468a2.08,2.08,0,0,0,1.117,1.78c.617.268,1.117-.092,1.115-.807V1.62A7.384,7.384,0,0,0,2.788-4.688c-2.179-.949-3.953.333-3.953,2.861l0,5.419Z" transform="translate(1.167 5.001)"/>
      </g>
    </g>
  </g>
</svg>
